<svg width="251" height="69" viewBox="0 0 251 69" fill="none" xmlns="http://www.w3.org/2000/svg">
<rect x="3" y="3" width="238" height="63" stroke="black" stroke-width="6"/>
<path d="M23.512 52V18.4H37.48C39.4 18.4 41.128 18.864 42.664 19.792C44.232 20.72 45.48 21.984 46.408 23.584C47.336 25.184 47.8 26.976 47.8 28.96C47.8 30.976 47.336 32.8 46.408 34.432C45.48 36.032 44.232 37.312 42.664 38.272C41.128 39.232 39.4 39.712 37.48 39.712H29.752V52H23.512ZM29.752 33.952H37.048C37.848 33.952 38.568 33.728 39.208 33.28C39.88 32.832 40.408 32.24 40.792 31.504C41.208 30.768 41.416 29.936 41.416 29.008C41.416 28.08 41.208 27.264 40.792 26.56C40.408 25.824 39.88 25.248 39.208 24.832C38.568 24.384 37.848 24.16 37.048 24.16H29.752V33.952ZM62.4299 52.48C60.3499 52.48 58.4619 51.904 56.7659 50.752C55.0699 49.6 53.7099 48.032 52.6859 46.048C51.6619 44.064 51.1499 41.808 51.1499 39.28C51.1499 36.752 51.6619 34.496 52.6859 32.512C53.7099 30.528 55.1019 28.976 56.8619 27.856C58.6219 26.736 60.6059 26.176 62.8139 26.176C64.0939 26.176 65.2619 26.368 66.3179 26.752C67.3739 27.104 68.3019 27.616 69.1019 28.288C69.9019 28.96 70.5579 29.728 71.0699 30.592C71.6139 31.456 71.9819 32.384 72.1739 33.376L70.8779 33.04V26.704H76.8299V52H70.8299V45.952L72.2219 45.712C71.9979 46.576 71.5819 47.424 70.9739 48.256C70.3979 49.056 69.6619 49.776 68.7659 50.416C67.9019 51.024 66.9259 51.52 65.8379 51.904C64.7819 52.288 63.6459 52.48 62.4299 52.48ZM64.0619 47.248C65.4379 47.248 66.6539 46.912 67.7099 46.24C68.7659 45.568 69.5819 44.64 70.1579 43.456C70.7659 42.24 71.0699 40.848 71.0699 39.28C71.0699 37.744 70.7659 36.384 70.1579 35.2C69.5819 34.016 68.7659 33.088 67.7099 32.416C66.6539 31.744 65.4379 31.408 64.0619 31.408C62.6859 31.408 61.4699 31.744 60.4139 32.416C59.3899 33.088 58.5899 34.016 58.0139 35.2C57.4379 36.384 57.1499 37.744 57.1499 39.28C57.1499 40.848 57.4379 42.24 58.0139 43.456C58.5899 44.64 59.3899 45.568 60.4139 46.24C61.4699 46.912 62.6859 47.248 64.0619 47.248ZM83.6748 52V26.704H89.4348L89.5308 31.888L88.4268 32.464C88.7468 31.312 89.3708 30.272 90.2988 29.344C91.2268 28.384 92.3308 27.616 93.6108 27.04C94.8908 26.464 96.2028 26.176 97.5468 26.176C99.4668 26.176 101.067 26.56 102.347 27.328C103.659 28.096 104.635 29.248 105.275 30.784C105.947 32.32 106.283 34.24 106.283 36.544V52H100.379V36.976C100.379 35.696 100.203 34.64 99.8508 33.808C99.4988 32.944 98.9548 32.32 98.2188 31.936C97.4828 31.52 96.5868 31.328 95.5308 31.36C94.6668 31.36 93.8668 31.504 93.1308 31.792C92.4268 32.048 91.8028 32.432 91.2588 32.944C90.7468 33.424 90.3308 33.984 90.0108 34.624C89.7228 35.264 89.5788 35.968 89.5788 36.736V52H86.6508C86.0748 52 85.5308 52 85.0188 52C84.5388 52 84.0908 52 83.6748 52ZM123.101 52.48C120.861 52.48 118.845 51.92 117.053 50.8C115.293 49.648 113.885 48.096 112.829 46.144C111.805 44.16 111.293 41.888 111.293 39.328C111.293 36.8 111.805 34.544 112.829 32.56C113.853 30.576 115.245 29.024 117.005 27.904C118.797 26.752 120.813 26.176 123.053 26.176C124.269 26.176 125.437 26.368 126.557 26.752C127.709 27.136 128.733 27.664 129.629 28.336C130.525 28.976 131.229 29.696 131.741 30.496C132.285 31.296 132.589 32.128 132.653 32.992L131.069 33.184V16.48H136.973V52H131.261L131.117 46.048L132.269 46.144C132.237 46.944 131.949 47.712 131.405 48.448C130.893 49.184 130.221 49.856 129.389 50.464C128.557 51.072 127.581 51.568 126.461 51.952C125.373 52.304 124.253 52.48 123.101 52.48ZM124.253 47.488C125.629 47.488 126.845 47.136 127.901 46.432C128.957 45.728 129.773 44.768 130.349 43.552C130.957 42.336 131.261 40.928 131.261 39.328C131.261 37.76 130.957 36.368 130.349 35.152C129.773 33.904 128.957 32.944 127.901 32.272C126.845 31.568 125.629 31.216 124.253 31.216C122.877 31.216 121.661 31.568 120.605 32.272C119.549 32.944 118.717 33.904 118.109 35.152C117.533 36.368 117.245 37.76 117.245 39.328C117.245 40.928 117.533 42.336 118.109 43.552C118.717 44.768 119.549 45.728 120.605 46.432C121.661 47.136 122.877 47.488 124.253 47.488ZM155.243 52.48C152.715 52.48 150.459 51.92 148.475 50.8C146.491 49.648 144.923 48.08 143.771 46.096C142.619 44.112 142.043 41.856 142.043 39.328C142.043 36.8 142.619 34.544 143.771 32.56C144.923 30.576 146.491 29.024 148.475 27.904C150.459 26.752 152.715 26.176 155.243 26.176C157.739 26.176 159.979 26.752 161.963 27.904C163.947 29.024 165.499 30.576 166.619 32.56C167.771 34.544 168.347 36.8 168.347 39.328C168.347 41.856 167.771 44.112 166.619 46.096C165.499 48.08 163.947 49.648 161.963 50.8C159.979 51.92 157.739 52.48 155.243 52.48ZM155.243 47.248C156.619 47.248 157.835 46.896 158.891 46.192C159.979 45.488 160.827 44.544 161.435 43.36C162.075 42.176 162.379 40.832 162.347 39.328C162.379 37.792 162.075 36.432 161.435 35.248C160.827 34.064 159.979 33.136 158.891 32.464C157.835 31.76 156.619 31.408 155.243 31.408C153.867 31.408 152.619 31.76 151.499 32.464C150.411 33.136 149.563 34.08 148.955 35.296C148.347 36.48 148.043 37.824 148.043 39.328C148.043 40.832 148.347 42.176 148.955 43.36C149.563 44.544 150.411 45.488 151.499 46.192C152.619 46.896 153.867 47.248 155.243 47.248ZM179.148 44.272L177.996 38.752L189.996 26.704H197.868L179.148 44.272ZM173.628 52V16.48H179.532V52H173.628ZM190.716 52L181.404 40.72L185.58 37.168L198.012 52H190.716ZM210.107 52.48C207.867 52.48 205.851 52.112 204.059 51.376C202.299 50.608 200.859 49.52 199.739 48.112L203.579 44.8C204.539 45.888 205.611 46.672 206.795 47.152C207.979 47.632 209.227 47.872 210.539 47.872C211.083 47.872 211.563 47.808 211.979 47.68C212.427 47.552 212.811 47.36 213.131 47.104C213.451 46.848 213.691 46.56 213.851 46.24C214.043 45.888 214.139 45.504 214.139 45.088C214.139 44.32 213.851 43.712 213.275 43.264C212.955 43.04 212.443 42.8 211.739 42.544C211.067 42.288 210.187 42.032 209.099 41.776C207.371 41.328 205.931 40.816 204.779 40.24C203.627 39.632 202.731 38.96 202.091 38.224C201.547 37.616 201.131 36.928 200.843 36.16C200.587 35.392 200.459 34.56 200.459 33.664C200.459 32.544 200.699 31.536 201.179 30.64C201.691 29.712 202.379 28.912 203.243 28.24C204.107 27.568 205.115 27.056 206.267 26.704C207.419 26.352 208.619 26.176 209.867 26.176C211.147 26.176 212.379 26.336 213.563 26.656C214.779 26.976 215.899 27.44 216.923 28.048C217.979 28.624 218.875 29.328 219.611 30.16L216.347 33.76C215.739 33.184 215.067 32.672 214.331 32.224C213.627 31.776 212.907 31.424 212.171 31.168C211.435 30.88 210.747 30.736 210.107 30.736C209.499 30.736 208.955 30.8 208.475 30.928C207.995 31.024 207.595 31.184 207.275 31.408C206.955 31.632 206.699 31.92 206.507 32.272C206.347 32.592 206.267 32.976 206.267 33.424C206.299 33.808 206.395 34.176 206.555 34.528C206.747 34.848 207.003 35.12 207.323 35.344C207.675 35.568 208.203 35.824 208.907 36.112C209.611 36.4 210.523 36.672 211.643 36.928C213.211 37.344 214.523 37.808 215.579 38.32C216.635 38.832 217.467 39.424 218.075 40.096C218.683 40.672 219.115 41.344 219.371 42.112C219.627 42.88 219.755 43.728 219.755 44.656C219.755 46.16 219.323 47.504 218.459 48.688C217.627 49.872 216.475 50.8 215.003 51.472C213.563 52.144 211.931 52.48 210.107 52.48Z" fill="black"/>
<path fill-rule="evenodd" clip-rule="evenodd" d="M251 52L224 52L224 47L251 47V52Z" fill="black"/>
</svg>
